<?xml version="1.0" encoding="UTF-8" standalone="no"?><svg xmlns="http://www.w3.org/2000/svg" xmlns:xlink="http://www.w3.org/1999/xlink" contentScriptType="application/ecmascript" contentStyleType="text/css" height="278px" preserveAspectRatio="none" style="width:684px;height:278px;" version="1.1" viewBox="0 0 684 278" width="684px" zoomAndPan="magnify"><defs><filter height="300%" id="f1du2o2gnkvtsa" width="300%" x="-1" y="-1"><feGaussianBlur result="blurOut" stdDeviation="2.0"/><feColorMatrix in="blurOut" result="blurOut2" type="matrix" values="0 0 0 0 0 0 0 0 0 0 0 0 0 0 0 0 0 0 .4 0"/><feOffset dx="4.0" dy="4.0" in="blurOut2" result="blurOut3"/><feBlend in="SourceGraphic" in2="blurOut3" mode="normal"/></filter></defs><g><ellipse cx="143" cy="18" fill="#000000" filter="url(#f1du2o2gnkvtsa)" rx="10" ry="10" style="stroke: none; stroke-width: 1.0;"/><rect fill="#FEFECE" filter="url(#f1du2o2gnkvtsa)" height="50.6211" rx="12.5" ry="12.5" style="stroke: #A80036; stroke-width: 1.5;" width="220" x="33" y="89"/><line style="stroke: #A80036; stroke-width: 1.5;" x1="33" x2="253" y1="115.4883" y2="115.4883"/><text fill="#000000" font-family="sans-serif" font-size="14" lengthAdjust="spacingAndGlyphs" textLength="68" x="109" y="107.5352">Pendiente</text><text fill="#000000" font-family="sans-serif" font-size="12" lengthAdjust="spacingAndGlyphs" textLength="200" x="38" y="132.0898">Pendiente de respuesta del Admin</text><rect fill="#FEFECE" filter="url(#f1du2o2gnkvtsa)" height="50.6211" rx="12.5" ry="12.5" style="stroke: #A80036; stroke-width: 1.5;" width="274" x="6" y="217"/><line style="stroke: #A80036; stroke-width: 1.5;" x1="6" x2="280" y1="243.4883" y2="243.4883"/><text fill="#000000" font-family="sans-serif" font-size="14" lengthAdjust="spacingAndGlyphs" textLength="42" x="122" y="235.5352">Activo</text><text fill="#000000" font-family="sans-serif" font-size="12" lengthAdjust="spacingAndGlyphs" textLength="254" x="11" y="260.0898">Puede usar la aplicacion de forma completa</text><rect fill="#FEFECE" filter="url(#f1du2o2gnkvtsa)" height="50.6211" rx="12.5" ry="12.5" style="stroke: #A80036; stroke-width: 1.5;" width="220" x="452" y="217"/><line style="stroke: #A80036; stroke-width: 1.5;" x1="452" x2="672" y1="243.4883" y2="243.4883"/><text fill="#000000" font-family="sans-serif" font-size="14" lengthAdjust="spacingAndGlyphs" textLength="73" x="525.5" y="235.5352">Bloqueado</text><text fill="#000000" font-family="sans-serif" font-size="12" lengthAdjust="spacingAndGlyphs" textLength="200" x="457" y="260.0898">No se tienen en cuenta sus apoyos</text><ellipse cx="416" cy="114.5" fill="none" filter="url(#f1du2o2gnkvtsa)" rx="10" ry="10" style="stroke: #000000; stroke-width: 1.0;"/><ellipse cx="416.5" cy="115" fill="#000000" rx="6" ry="6" style="stroke: none; stroke-width: 1.0;"/><!--MD5=[ab9c167fd9db5aa8609d63a6d06705ee]
link *start to Pendiente--><path d="M143,28.06 C143,40.73 143,64.34 143,83.53 " fill="none" id="*start-&gt;Pendiente" style="stroke: #A80036; stroke-width: 1.0;"/><polygon fill="#A80036" points="143,88.81,147,79.81,143,83.81,139,79.81,143,88.81" style="stroke: #A80036; stroke-width: 1.0;"/><!--MD5=[e8e48108aa693aafa73efce45c3340b9]
link Pendiente to Activo--><path d="M143,140.09 C143,160.65 143,190.02 143,211.87 " fill="none" id="Pendiente-&gt;Activo" style="stroke: #A80036; stroke-width: 1.0;"/><polygon fill="#A80036" points="143,216.97,147,207.97,143,211.97,139,207.97,143,216.97" style="stroke: #A80036; stroke-width: 1.0;"/><text fill="#000000" font-family="sans-serif" font-size="13" lengthAdjust="spacingAndGlyphs" textLength="108" x="144" y="183.5684">AceptarRegistro()</text><!--MD5=[9196e16ab82b12bddeadea51b1a072e4]
link Activo to Bloqueado--><path d="M280.04,260.24 C290.17,261.14 300.24,261.92 310,262.5 C359.69,265.46 372.35,266.03 422,262.5 C430.01,261.93 438.26,261.18 446.56,260.3 " fill="none" id="Activo-&gt;Bloqueado" style="stroke: #A80036; stroke-width: 1.0;"/><polygon fill="#A80036" points="451.73,259.74,442.349,256.7406,446.7595,260.2828,443.2174,264.6933,451.73,259.74" style="stroke: #A80036; stroke-width: 1.0;"/><text fill="#000000" font-family="sans-serif" font-size="13" lengthAdjust="spacingAndGlyphs" textLength="110" x="311" y="259.0684">BloquearUsuario()</text><!--MD5=[2a26bfe624388506295f5d09efcdf0b1]
link Bloqueado to Activo--><path d="M451.7,242.5 C400.8,242.5 339.76,242.5 285.43,242.5 " fill="none" id="Bloqueado-&gt;Activo" style="stroke: #A80036; stroke-width: 1.0;"/><polygon fill="#A80036" points="280.2,242.5,289.2,246.5,285.2,242.5,289.2,238.5,280.2,242.5" style="stroke: #A80036; stroke-width: 1.0;"/><text fill="#000000" font-family="sans-serif" font-size="13" lengthAdjust="spacingAndGlyphs" textLength="135" x="298.5" y="236.0684">DesbloquearUsuario()</text><!--MD5=[3d0ea9e5045db4e64b527df234ce8a66]
link Pendiente to *end--><path d="M253.25,114.5 C309.58,114.5 372.1,114.5 400.48,114.5 " fill="none" id="Pendiente-&gt;*end" style="stroke: #A80036; stroke-width: 1.0;"/><polygon fill="#A80036" points="405.69,114.5,396.69,110.5,400.69,114.5,396.69,118.5,405.69,114.5" style="stroke: #A80036; stroke-width: 1.0;"/><text fill="#000000" font-family="sans-serif" font-size="13" lengthAdjust="spacingAndGlyphs" textLength="116" x="271.5" y="108.0684">RechazarRegistro()</text><!--MD5=[4737fbdf892a8b582ecb9884e5649914]
@startuml ciudadano_state
hide empty description
[*] - -> Pendiente

Pendiente : Pendiente de respuesta del Admin

Pendiente - -> Activo : AceptarRegistro()

Activo : Puede usar la aplicacion de forma completa
Bloqueado : No se tienen en cuenta sus apoyos

Activo -> Bloqueado : BloquearUsuario()
Bloqueado -> Activo : DesbloquearUsuario()


Pendiente -> [*] : RechazarRegistro()
@enduml

PlantUML version 1.2020.01(Sun Feb 16 18:40:32 CET 2020)
(GPL source distribution)
Java Runtime: Java(TM) SE Runtime Environment
JVM: Java HotSpot(TM) 64-Bit Server VM
Java Version: 12.0.2+10
Operating System: Mac OS X
Default Encoding: UTF-8
Language: es
Country: ES
--></g></svg>