<?xml version="1.0" encoding="UTF-8" standalone="no"?><svg xmlns="http://www.w3.org/2000/svg" xmlns:xlink="http://www.w3.org/1999/xlink" contentScriptType="application/ecmascript" contentStyleType="text/css" height="816px" preserveAspectRatio="none" style="width:715px;height:816px;" version="1.1" viewBox="0 0 715 816" width="715px" zoomAndPan="magnify"><defs><filter height="300%" id="f11zulnpexzphw" width="300%" x="-1" y="-1"><feGaussianBlur result="blurOut" stdDeviation="2.0"/><feColorMatrix in="blurOut" result="blurOut2" type="matrix" values="0 0 0 0 0 0 0 0 0 0 0 0 0 0 0 0 0 0 .4 0"/><feOffset dx="4.0" dy="4.0" in="blurOut2" result="blurOut3"/><feBlend in="SourceGraphic" in2="blurOut3" mode="normal"/></filter></defs><g><ellipse cx="450.65" cy="18" fill="#000000" filter="url(#f11zulnpexzphw)" rx="10" ry="10" style="stroke: none; stroke-width: 1.0;"/><rect fill="#FEFECE" filter="url(#f11zulnpexzphw)" height="40" rx="12.5" ry="12.5" style="stroke: #A80036; stroke-width: 1.5;" width="80" x="410.65" y="89"/><text fill="#000000" font-family="sans-serif" font-size="14" lengthAdjust="spacingAndGlyphs" textLength="70" x="415.65" y="114.291">Propuesto</text><rect fill="#FEFECE" filter="url(#f11zulnpexzphw)" height="40" rx="12.5" ry="12.5" style="stroke: #A80036; stroke-width: 1.5;" width="137" x="252.15" y="222"/><text fill="#000000" font-family="sans-serif" font-size="14" lengthAdjust="spacingAndGlyphs" textLength="127" x="257.15" y="247.291">RecibiendoApoyos</text><rect fill="#FEFECE" filter="url(#f11zulnpexzphw)" height="40" rx="12.5" ry="12.5" style="stroke: #A80036; stroke-width: 1.5;" width="79" x="53.15" y="614"/><text fill="#000000" font-family="sans-serif" font-size="14" lengthAdjust="spacingAndGlyphs" textLength="69" x="58.15" y="639.291">Caducado</text><rect fill="#FEFECE" filter="url(#f11zulnpexzphw)" height="40" rx="12.5" ry="12.5" style="stroke: #A80036; stroke-width: 1.5;" width="64" x="282.65" y="684"/><text fill="#000000" font-family="sans-serif" font-size="14" lengthAdjust="spacingAndGlyphs" textLength="54" x="287.65" y="709.291">Enviado</text><ellipse cx="314.65" cy="795" fill="none" filter="url(#f11zulnpexzphw)" rx="10" ry="10" style="stroke: #000000; stroke-width: 1.0;"/><ellipse cx="315.15" cy="795.5" fill="#000000" rx="6" ry="6" style="stroke: none; stroke-width: 1.0;"/><rect fill="#FEFECE" filter="url(#f11zulnpexzphw)" height="244.4883" rx="12.5" ry="12.5" style="stroke: #A80036; stroke-width: 1.5;" width="391" x="119.15" y="340"/><rect fill="#FFFFFF" height="212" rx="12.5" ry="12.5" style="stroke: #FFFFFF; stroke-width: 1.0;" width="385" x="122.15" y="369.4883"/><line style="stroke: #A80036; stroke-width: 1.5;" x1="119.15" x2="510.15" y1="366.4883" y2="366.4883"/><text fill="#000000" font-family="sans-serif" font-size="14" lengthAdjust="spacingAndGlyphs" textLength="115" x="257.15" y="358.5352">DisponibleEnviar</text><ellipse cx="205.65" cy="389.4883" fill="#000000" filter="url(#f11zulnpexzphw)" rx="10" ry="10" style="stroke: none; stroke-width: 1.0;"/><rect fill="#FEFECE" filter="url(#f11zulnpexzphw)" height="40" rx="12.5" ry="12.5" style="stroke: #A80036; stroke-width: 1.5;" width="98" x="156.65" y="436.4883"/><text fill="#000000" font-family="sans-serif" font-size="14" lengthAdjust="spacingAndGlyphs" textLength="88" x="161.65" y="461.7793">NoCaducado</text><rect fill="#FEFECE" filter="url(#f11zulnpexzphw)" height="40" rx="12.5" ry="12.5" style="stroke: #A80036; stroke-width: 1.5;" width="151" x="130.15" y="529.4883"/><text fill="#000000" font-family="sans-serif" font-size="14" lengthAdjust="spacingAndGlyphs" textLength="141" x="135.15" y="554.7793">CaducadoConApoyo</text><!--MD5=[6221a757e9fbc4ebd07dbba694efdd05]
link *start*DisponibleEnviar to NoCaducado--><path d="M205.65,399.5283 C205.65,407.6783 205.65,420.0483 205.65,431.0883 " fill="none" id="*start*DisponibleEnviar-&gt;NoCaducado" style="stroke: #A80036; stroke-width: 1.0;"/><polygon fill="#A80036" points="205.65,436.3783,209.65,427.3783,205.65,431.3783,201.65,427.3783,205.65,436.3783" style="stroke: #A80036; stroke-width: 1.0;"/><!--MD5=[3c0dc665f796fc49ca288c765b990bce]
link NoCaducado to CaducadoConApoyo--><path d="M205.65,476.7883 C205.65,490.5383 205.65,509.1383 205.65,523.9483 " fill="none" id="NoCaducado-&gt;CaducadoConApoyo" style="stroke: #A80036; stroke-width: 1.0;"/><polygon fill="#A80036" points="205.65,529.2183,209.65,520.2183,205.65,524.2183,201.65,520.2183,205.65,529.2183" style="stroke: #A80036; stroke-width: 1.0;"/><text fill="#000000" font-family="sans-serif" font-size="13" lengthAdjust="spacingAndGlyphs" textLength="269" x="206.65" y="508.0566">[fechaAct - fechaUltimoApoyo &gt;= 30 dias]</text><!--MD5=[4814e948bea28746b3273287b6884783]
link *start to Propuesto--><path d="M450.65,28.19 C450.65,41.18 450.65,65.38 450.65,83.73 " fill="none" id="*start-&gt;Propuesto" style="stroke: #A80036; stroke-width: 1.0;"/><polygon fill="#A80036" points="450.65,88.74,454.65,79.74,450.65,83.74,446.65,79.74,450.65,88.74" style="stroke: #A80036; stroke-width: 1.0;"/><!--MD5=[ab78cee5632a6e8132535379f235f038]
link Propuesto to RecibiendoApoyos--><path d="M410.42,112.9 C379.4,117.5 338.41,129.23 317.65,159 C306.06,175.63 308.28,199.1 312.54,216.68 " fill="none" id="Propuesto-&gt;RecibiendoApoyos" style="stroke: #A80036; stroke-width: 1.0;"/><polygon fill="#A80036" points="313.92,221.93,315.5234,212.2125,312.6602,217.0913,307.7814,214.2282,313.92,221.93" style="stroke: #A80036; stroke-width: 1.0;"/><text fill="#000000" font-family="sans-serif" font-size="13" lengthAdjust="spacingAndGlyphs" textLength="235" x="318.65" y="172.5684">autorizarProyecto() [return == True] /</text><text fill="#000000" font-family="sans-serif" font-size="13" lengthAdjust="spacingAndGlyphs" textLength="97" x="389.65" y="187.8789">recibirApoyo(A)</text><!--MD5=[b6bbbea17608f18961d6553ec0845770]
link RecibiendoApoyos to RecibiendoApoyos--><path d="M389.33,231.17 C408.99,231.59 424.15,235.2 424.15,242 C424.15,248.16 411.7,251.7 394.73,252.63 " fill="none" id="RecibiendoApoyos-&gt;RecibiendoApoyos" style="stroke: #A80036; stroke-width: 1.0;"/><polygon fill="#A80036" points="389.33,252.83,398.4727,256.4922,394.3265,252.6439,398.1749,248.4978,389.33,252.83" style="stroke: #A80036; stroke-width: 1.0;"/><text fill="#000000" font-family="sans-serif" font-size="13" lengthAdjust="spacingAndGlyphs" textLength="108" x="430.15" y="239.5684">recibirApoyo(A) /</text><text fill="#000000" font-family="sans-serif" font-size="13" lengthAdjust="spacingAndGlyphs" textLength="75" x="448.65" y="254.8789">apoyo += A</text><!--MD5=[7d6bd981a04f3f940a84c384ffaf8329]
link RecibiendoApoyos to DisponibleEnviar--><path d="M320.12,262.35 C319.65,279.51 318.92,306.2 318.14,334.5 " fill="none" id="RecibiendoApoyos-&gt;DisponibleEnviar" style="stroke: #A80036; stroke-width: 1.0;"/><polygon fill="#A80036" points="317.99,339.81,322.2454,330.9279,318.1328,334.812,314.2487,330.6994,317.99,339.81" style="stroke: #A80036; stroke-width: 1.0;"/><text fill="#000000" font-family="sans-serif" font-size="13" lengthAdjust="spacingAndGlyphs" textLength="173" x="319.65" y="306.5684">[apoyo &gt;= apoyosMinimos]</text><!--MD5=[f8d7a5976d270b9a86224e4b2ca8a0b2]
link RecibiendoApoyos to Caducado--><path d="M252.01,245.43 C177.71,249.67 66.23,261.28 39.65,293 C-39.05,386.95 42.43,548.67 77.9,609.21 " fill="none" id="RecibiendoApoyos-&gt;Caducado" style="stroke: #A80036; stroke-width: 1.0;"/><polygon fill="#A80036" points="80.57,613.73,79.4319,603.9471,78.0249,609.4262,72.5458,608.0193,80.57,613.73" style="stroke: #A80036; stroke-width: 1.0;"/><text fill="#000000" font-family="sans-serif" font-size="13" lengthAdjust="spacingAndGlyphs" textLength="269" x="40.65" y="306.5684">[fechaAct - fechaUltimoApoyo &gt;= 30 dias]</text><!--MD5=[ff7849b4529036237fcbfe86c41f5580]
link DisponibleEnviar to Enviado--><path d="M314.65,584.05 C314.65,620.08 314.65,655.97 314.65,678.76 " fill="none" id="DisponibleEnviar-&gt;Enviado" style="stroke: #A80036; stroke-width: 1.0;"/><polygon fill="#A80036" points="314.65,683.98,318.65,674.98,314.65,678.98,310.65,674.98,314.65,683.98" style="stroke: #A80036; stroke-width: 1.0;"/><text fill="#000000" font-family="sans-serif" font-size="13" lengthAdjust="spacingAndGlyphs" textLength="125" x="315.65" y="639.0684">enviarFinanciacion()</text><!--MD5=[6f396186f881e397d83f6c9615eaca44]
link Enviado to *end--><path d="M314.65,724.31 C314.65,740.89 314.65,764.41 314.65,779.44 " fill="none" id="Enviado-&gt;*end" style="stroke: #A80036; stroke-width: 1.0;"/><polygon fill="#A80036" points="314.65,784.56,318.65,775.56,314.65,779.56,310.65,775.56,314.65,784.56" style="stroke: #A80036; stroke-width: 1.0;"/><!--MD5=[03bb14997fde978258bd4001fa75eb03]
link Caducado to *end--><path d="M119.43,654.18 C167.77,688.8 267.82,760.45 302.5,785.29 " fill="none" id="Caducado-&gt;*end" style="stroke: #A80036; stroke-width: 1.0;"/><polygon fill="#A80036" points="306.76,788.35,301.7698,779.859,302.6942,785.4398,297.1134,786.3642,306.76,788.35" style="stroke: #A80036; stroke-width: 1.0;"/><!--MD5=[22a517e2406cb26c2cbad32a8eb55abe]
link Propuesto to *end--><path d="M490.81,119.09 C513.76,126.27 541.34,138.59 558.65,159 C583.06,187.77 580.65,203.27 580.65,241 C580.65,241 580.65,241 580.65,705 C580.65,758.32 386.03,785.54 329.73,792.3 " fill="none" id="Propuesto-&gt;*end" style="stroke: #A80036; stroke-width: 1.0;"/><polygon fill="#A80036" points="324.44,792.92,333.8462,795.8395,329.4057,792.335,332.9102,787.8944,324.44,792.92" style="stroke: #A80036; stroke-width: 1.0;"/><text fill="#000000" font-family="sans-serif" font-size="13" lengthAdjust="spacingAndGlyphs" textLength="118" x="581.65" y="459.5684">autorizarProyecto()</text><text fill="#000000" font-family="sans-serif" font-size="13" lengthAdjust="spacingAndGlyphs" textLength="102" x="591.65" y="474.8789">[return == True]</text><!--MD5=[bc47fb6d0b602362d6635caae216b196]
@startuml diagrama_estado_proyecto  
hide empty description


[*] - -> Propuesto
Propuesto - -> RecibiendoApoyos: autorizarProyecto() [return == True] /\n recibirApoyo(A)
RecibiendoApoyos - -> RecibiendoApoyos: recibirApoyo(A) /\n apoyo += A
RecibiendoApoyos - -> DisponibleEnviar: [apoyo >= apoyosMinimos]
RecibiendoApoyos - ->  Caducado: [fechaAct - fechaUltimoApoyo >= 30 dias]
DisponibleEnviar - -> Enviado: enviarFinanciacion()

Enviado - -> [*]
Caducado - -> [*]
Propuesto - -> [*]: autorizarProyecto() \n[return == True]


state DisponibleEnviar{
    [*] - -> NoCaducado
    NoCaducado - -> CaducadoConApoyo: [fechaAct - fechaUltimoApoyo >= 30 dias]
}

@enduml

PlantUML version 1.2020.01(Sun Feb 16 18:40:32 CET 2020)
(GPL source distribution)
Java Runtime: Java(TM) SE Runtime Environment
JVM: Java HotSpot(TM) 64-Bit Server VM
Java Version: 12.0.2+10
Operating System: Mac OS X
Default Encoding: UTF-8
Language: es
Country: ES
--></g></svg>