<?xml version="1.0" encoding="UTF-8" standalone="no"?><svg xmlns="http://www.w3.org/2000/svg" xmlns:xlink="http://www.w3.org/1999/xlink" contentScriptType="application/ecmascript" contentStyleType="text/css" height="565px" preserveAspectRatio="none" style="width:609px;height:565px;" version="1.1" viewBox="0 0 609 565" width="609px" zoomAndPan="magnify"><defs><filter height="300%" id="f2y3wb8weetle" width="300%" x="-1" y="-1"><feGaussianBlur result="blurOut" stdDeviation="2.0"/><feColorMatrix in="blurOut" result="blurOut2" type="matrix" values="0 0 0 0 0 0 0 0 0 0 0 0 0 0 0 0 0 0 .4 0"/><feOffset dx="4.0" dy="4.0" in="blurOut2" result="blurOut3"/><feBlend in="SourceGraphic" in2="blurOut3" mode="normal"/></filter></defs><g><rect fill="#FFFFFF" filter="url(#f2y3wb8weetle)" height="454.2383" style="stroke: #A80036; stroke-width: 1.0;" width="10" x="262" y="89.7988"/><rect fill="#FFFFFF" filter="url(#f2y3wb8weetle)" height="50.3105" style="stroke: #A80036; stroke-width: 1.0;" width="10" x="267" y="137.1094"/><rect fill="#FFFFFF" filter="url(#f2y3wb8weetle)" height="39.3105" style="stroke: #A80036; stroke-width: 1.0;" width="10" x="432" y="289.2188"/><rect fill="#FFFFFF" filter="url(#f2y3wb8weetle)" height="39.3105" style="stroke: #A80036; stroke-width: 1.0;" width="10" x="432" y="488.7266"/><rect fill="#FFFFFF" filter="url(#f2y3wb8weetle)" height="39.3105" style="stroke: #A80036; stroke-width: 1.0;" width="10" x="546" y="367.8398"/><rect fill="#FFFFFF" filter="url(#f2y3wb8weetle)" height="113.8867" style="stroke: #000000; stroke-width: 2.0;" width="294.5" x="205.5" y="422.1504"/><line style="stroke: #A80036; stroke-width: 1.0; stroke-dasharray: 5.0,5.0;" x1="266.5" x2="266.5" y1="48.4883" y2="553.0371"/><line style="stroke: #A80036; stroke-width: 1.0; stroke-dasharray: 5.0,5.0;" x1="437" x2="437" y1="240.1641" y2="553.0371"/><line style="stroke: #A80036; stroke-width: 1.0; stroke-dasharray: 5.0,5.0;" x1="551" x2="551" y1="48.4883" y2="553.0371"/><rect fill="#FEFECE" filter="url(#f2y3wb8weetle)" height="40.4883" style="stroke: #A80036; stroke-width: 1.5;" width="99" x="215.5" y="3"/><text fill="#000000" font-family="sans-serif" font-size="14" lengthAdjust="spacingAndGlyphs" text-decoration="underline" textLength="75" x="227.5" y="28.5352">:Aplicacion</text><rect fill="#FEFECE" filter="url(#f2y3wb8weetle)" height="40.4883" style="stroke: #A80036; stroke-width: 1.5;" width="98" x="500" y="3"/><text fill="#000000" font-family="sans-serif" font-size="14" lengthAdjust="spacingAndGlyphs" text-decoration="underline" textLength="74" x="512" y="28.5352">c:Colectivo</text><rect fill="#FFFFFF" filter="url(#f2y3wb8weetle)" height="454.2383" style="stroke: #A80036; stroke-width: 1.0;" width="10" x="262" y="89.7988"/><rect fill="#FFFFFF" filter="url(#f2y3wb8weetle)" height="50.3105" style="stroke: #A80036; stroke-width: 1.0;" width="10" x="267" y="137.1094"/><rect fill="#FFFFFF" filter="url(#f2y3wb8weetle)" height="39.3105" style="stroke: #A80036; stroke-width: 1.0;" width="10" x="432" y="289.2188"/><rect fill="#FFFFFF" filter="url(#f2y3wb8weetle)" height="39.3105" style="stroke: #A80036; stroke-width: 1.0;" width="10" x="432" y="488.7266"/><rect fill="#FFFFFF" filter="url(#f2y3wb8weetle)" height="39.3105" style="stroke: #A80036; stroke-width: 1.0;" width="10" x="546" y="367.8398"/><ellipse cx="7.5" cy="89.0488" fill="none" rx="4" ry="4" style="stroke: #A80036; stroke-width: 1.5;"/><polygon fill="#A80036" points="250,85.7988,260,89.7988,250,93.7988,254,89.7988" style="stroke: #A80036; stroke-width: 1.0;"/><line style="stroke: #A80036; stroke-width: 1.0;" x1="12" x2="256" y1="89.7988" y2="89.7988"/><text fill="#000000" font-family="sans-serif" font-size="13" lengthAdjust="spacingAndGlyphs" textLength="222" x="20" y="80.0566">crearProyectoColectivo(c:Colectivo)</text><line style="stroke: #A80036; stroke-width: 1.0;" x1="272" x2="319" y1="124.1094" y2="124.1094"/><line style="stroke: #A80036; stroke-width: 1.0;" x1="319" x2="319" y1="124.1094" y2="137.1094"/><line style="stroke: #A80036; stroke-width: 1.0;" x1="278" x2="319" y1="137.1094" y2="137.1094"/><polygon fill="#A80036" points="288,133.1094,278,137.1094,288,141.1094,284,137.1094" style="stroke: #A80036; stroke-width: 1.0;"/><text fill="#000000" font-family="sans-serif" font-size="13" lengthAdjust="spacingAndGlyphs" textLength="95" x="289" y="114.3672">usuarioActual()</text><line style="stroke: #A80036; stroke-width: 1.0; stroke-dasharray: 2.0,2.0;" x1="277" x2="319" y1="186.4199" y2="186.4199"/><line style="stroke: #A80036; stroke-width: 1.0; stroke-dasharray: 2.0,2.0;" x1="319" x2="319" y1="186.4199" y2="199.4199"/><line style="stroke: #A80036; stroke-width: 1.0; stroke-dasharray: 2.0,2.0;" x1="272" x2="319" y1="199.4199" y2="199.4199"/><polygon fill="#A80036" points="282,195.4199,272,199.4199,282,203.4199,278,199.4199" style="stroke: #A80036; stroke-width: 1.0;"/><text fill="#000000" font-family="sans-serif" font-size="13" lengthAdjust="spacingAndGlyphs" textLength="20" x="289" y="176.6777">usr</text><polygon fill="#A80036" points="372,229.7305,382,233.7305,372,237.7305,376,233.7305" style="stroke: #A80036; stroke-width: 1.0;"/><line style="stroke: #A80036; stroke-width: 1.0;" x1="272" x2="378" y1="233.7305" y2="233.7305"/><text fill="#000000" font-family="sans-serif" font-size="13" lengthAdjust="spacingAndGlyphs" textLength="25" x="284" y="223.9883">new</text><rect fill="#FEFECE" filter="url(#f2y3wb8weetle)" height="40.4883" style="stroke: #A80036; stroke-width: 1.5;" width="102" x="384" y="202.4199"/><text fill="#000000" font-family="sans-serif" font-size="14" lengthAdjust="spacingAndGlyphs" text-decoration="underline" textLength="78" x="396" y="227.9551">pr:Proyecto</text><polygon fill="#A80036" points="420,285.2188,430,289.2188,420,293.2188,424,289.2188" style="stroke: #A80036; stroke-width: 1.0;"/><line style="stroke: #A80036; stroke-width: 1.0;" x1="272" x2="426" y1="289.2188" y2="289.2188"/><text fill="#000000" font-family="sans-serif" font-size="13" lengthAdjust="spacingAndGlyphs" textLength="131" x="284" y="279.4766">anadirSubscritor(usr)</text><polygon fill="#A80036" points="283,324.5293,273,328.5293,283,332.5293,279,328.5293" style="stroke: #A80036; stroke-width: 1.0;"/><line style="stroke: #A80036; stroke-width: 1.0; stroke-dasharray: 2.0,2.0;" x1="277" x2="436" y1="328.5293" y2="328.5293"/><text fill="#000000" font-family="sans-serif" font-size="13" lengthAdjust="spacingAndGlyphs" textLength="126" x="294" y="318.7871">Subscriptor anadido</text><polygon fill="#A80036" points="534,363.8398,544,367.8398,534,371.8398,538,367.8398" style="stroke: #A80036; stroke-width: 1.0;"/><line style="stroke: #A80036; stroke-width: 1.0;" x1="272" x2="540" y1="367.8398" y2="367.8398"/><text fill="#000000" font-family="sans-serif" font-size="13" lengthAdjust="spacingAndGlyphs" textLength="102" x="284" y="358.0977">getCiudadanos()</text><polygon fill="#A80036" points="283,403.1504,273,407.1504,283,411.1504,279,407.1504" style="stroke: #A80036; stroke-width: 1.0;"/><line style="stroke: #A80036; stroke-width: 1.0; stroke-dasharray: 2.0,2.0;" x1="277" x2="550" y1="407.1504" y2="407.1504"/><text fill="#000000" font-family="sans-serif" font-size="13" lengthAdjust="spacingAndGlyphs" textLength="72" x="294" y="397.4082">ciudadanos</text><path d="M205.5,422.1504 L289.5,422.1504 L289.5,439.1504 L279.5,449.1504 L205.5,449.1504 L205.5,422.1504 " fill="#EEEEEE" style="stroke: #000000; stroke-width: 1.0;"/><rect fill="none" height="113.8867" style="stroke: #000000; stroke-width: 2.0;" width="294.5" x="205.5" y="422.1504"/><text fill="#000000" font-family="sans-serif" font-size="13" font-weight="bold" lengthAdjust="spacingAndGlyphs" textLength="29" x="225.5" y="440.7188">loop</text><text fill="#000000" font-family="sans-serif" font-size="11" font-weight="bold" lengthAdjust="spacingAndGlyphs" textLength="98" x="309.5" y="439.7852">[c en ciudadanos]</text><polygon fill="#A80036" points="420,484.7266,430,488.7266,420,492.7266,424,488.7266" style="stroke: #A80036; stroke-width: 1.0;"/><line style="stroke: #A80036; stroke-width: 1.0;" x1="272" x2="426" y1="488.7266" y2="488.7266"/><text fill="#000000" font-family="sans-serif" font-size="13" lengthAdjust="spacingAndGlyphs" textLength="94" x="284" y="478.9844">anadirApoyo(c)</text><polygon fill="#A80036" points="283,524.0371,273,528.0371,283,532.0371,279,528.0371" style="stroke: #A80036; stroke-width: 1.0;"/><line style="stroke: #A80036; stroke-width: 1.0; stroke-dasharray: 2.0,2.0;" x1="277" x2="436" y1="528.0371" y2="528.0371"/><text fill="#000000" font-family="sans-serif" font-size="13" lengthAdjust="spacingAndGlyphs" textLength="92" x="294" y="518.2949">ApoyoAnadido</text><!--MD5=[f5c8f1a2d383839c8a68cefe4a58a137]
@startuml sequence_proyecto
hide footbox
skinparam sequenceParticipant underline
skinparam padding 5
participant ":Aplicacion" as A
participant "pr:Proyecto" as P
participant "c:Colectivo" as C

?o->A: crearProyectoColectivo(c:Colectivo)
activate A
A->A: usuarioActual()
activate A
A- ->A: usr
deactivate A
create P
A->P: new


A->P: anadirSubscritor(usr)
activate P
P- ->A : Subscriptor anadido
deactivate P

A->C: getCiudadanos()
activate C
C- ->A: ciudadanos
deactivate C

loop c en ciudadanos
    A->P: anadirApoyo(c)
    activate P
    P- ->A : ApoyoAnadido
    deactivate P
end
@enduml

PlantUML version 1.2020.01(Sun Feb 16 18:40:32 CET 2020)
(GPL source distribution)
Java Runtime: Java(TM) SE Runtime Environment
JVM: Java HotSpot(TM) 64-Bit Server VM
Java Version: 12.0.2+10
Operating System: Mac OS X
Default Encoding: UTF-8
Language: es
Country: ES
--></g></svg>